<svg width="57" height="58" viewBox="0 0 57 58" fill="none" xmlns="http://www.w3.org/2000/svg">
<g id="ic:round-history">
<path id="Vector" d="M31.4925 7.6599C19.4038 7.3274 9.50001 17.0412 9.50001 29.0349H5.24876C4.18001 29.0349 3.65751 30.3174 4.41751 31.0537L11.0438 37.7036C11.5188 38.1786 12.255 38.1786 12.73 37.7036L19.3563 31.0537C19.5204 30.8862 19.6313 30.674 19.6749 30.4436C19.7186 30.2133 19.6931 29.9751 19.6017 29.7593C19.5103 29.5434 19.357 29.3594 19.1611 29.2305C18.9653 29.1016 18.7357 29.0335 18.5013 29.0349H14.25C14.25 19.7724 21.8025 12.2912 31.1125 12.4099C39.9475 12.5287 47.3813 19.9624 47.5 28.7974C47.6188 38.0837 40.1375 45.6599 30.875 45.6599C27.0513 45.6599 23.5125 44.3537 20.71 42.1449C20.2551 41.7865 19.6844 41.6079 19.1063 41.6429C18.5283 41.678 17.9833 41.9242 17.575 42.3349C16.5775 43.3324 16.6488 45.0187 17.765 45.8736C21.4964 48.8245 26.1178 50.4236 30.875 50.4099C42.8688 50.4099 52.5825 40.5061 52.25 28.4174C51.9413 17.2787 42.6313 7.96865 31.4925 7.6599ZM30.2813 19.5349C29.3075 19.5349 28.5 20.3424 28.5 21.3161V30.0562C28.5 30.8874 28.9513 31.6712 29.6638 32.0987L37.0738 36.4924C37.9288 36.9912 39.0213 36.7062 39.52 35.8749C40.0188 35.0199 39.7338 33.9274 38.9025 33.4287L32.0625 29.3674V21.2924C32.0625 20.3424 31.255 19.5349 30.2813 19.5349Z" fill="#6597BF"/>
</g>
</svg>
