<svg width="57" height="58" viewBox="0 0 57 58" fill="none" xmlns="http://www.w3.org/2000/svg">
<g id="material-symbols:checklist-rtl-rounded">
<path id="Vector" d="M7.125 21.9099C6.45208 21.9099 5.88842 21.6819 5.434 21.2259C4.978 20.7715 4.75 20.2078 4.75 19.5349C4.75 18.862 4.978 18.2975 5.434 17.8415C5.88842 17.3871 6.45208 17.1599 7.125 17.1599H23.75C24.4229 17.1599 24.9874 17.3871 25.4434 17.8415C25.8978 18.2975 26.125 18.862 26.125 19.5349C26.125 20.2078 25.8978 20.7715 25.4434 21.2259C24.9874 21.6819 24.4229 21.9099 23.75 21.9099H7.125ZM7.125 40.9099C6.45208 40.9099 5.88842 40.6819 5.434 40.2259C4.978 39.7715 4.75 39.2078 4.75 38.5349C4.75 37.862 4.978 37.2975 5.434 36.8415C5.88842 36.3871 6.45208 36.1599 7.125 36.1599H23.75C24.4229 36.1599 24.9874 36.3871 25.4434 36.8415C25.8978 37.2975 26.125 37.862 26.125 38.5349C26.125 39.2078 25.8978 39.7715 25.4434 40.2259C24.9874 40.6819 24.4229 40.9099 23.75 40.9099H7.125ZM37.2281 24.9974L32.1219 19.8912C31.6865 19.4558 31.4688 18.9016 31.4688 18.2287C31.4688 17.5558 31.6865 17.0016 32.1219 16.5662C32.5573 16.1308 33.1115 15.913 33.7844 15.913C34.4573 15.913 35.0115 16.1308 35.4469 16.5662L38.8312 19.9505L47.2625 11.5193C47.7375 11.0443 48.2917 10.8163 48.925 10.8353C49.5583 10.8559 50.1125 11.1037 50.5875 11.5787C51.0229 12.0537 51.2406 12.6078 51.2406 13.2412C51.2406 13.8745 51.0229 14.4287 50.5875 14.9037L40.5531 24.9974C40.0781 25.4724 39.524 25.7099 38.8906 25.7099C38.2573 25.7099 37.7031 25.4724 37.2281 24.9974ZM37.2281 43.9974L32.1219 38.8912C31.6865 38.4558 31.4688 37.9016 31.4688 37.2287C31.4688 36.5558 31.6865 36.0016 32.1219 35.5662C32.5573 35.1308 33.1115 34.913 33.7844 34.913C34.4573 34.913 35.0115 35.1308 35.4469 35.5662L38.8312 38.9505L47.2625 30.5193C47.7375 30.0443 48.2917 29.8163 48.925 29.8353C49.5583 29.8559 50.1125 30.1037 50.5875 30.5787C51.0229 31.0537 51.2406 31.6078 51.2406 32.2412C51.2406 32.8745 51.0229 33.4287 50.5875 33.9037L40.5531 43.9974C40.0781 44.4724 39.524 44.7099 38.8906 44.7099C38.2573 44.7099 37.7031 44.4724 37.2281 43.9974Z" fill="#C6D9E8"/>
</g>
</svg>
