<svg width="57" height="58" viewBox="0 0 57 58" fill="none" xmlns="http://www.w3.org/2000/svg">
<g id="material-symbols:food-bank-rounded">
<path id="Vector" d="M14.25 50.4099C12.9437 50.4099 11.8259 49.9452 10.8965 49.0158C9.9655 48.0848 9.5 46.9662 9.5 45.6599V24.2849C9.5 23.5328 9.66862 22.8203 10.0059 22.1474C10.3415 21.4745 10.8063 20.9203 11.4 20.4849L25.65 9.79741C26.4813 9.16408 27.4312 8.84741 28.5 8.84741C29.5688 8.84741 30.5187 9.16408 31.35 9.79741L45.6 20.4849C46.1938 20.9203 46.6592 21.4745 46.9965 22.1474C47.3322 22.8203 47.5 23.5328 47.5 24.2849V45.6599C47.5 46.9662 47.0353 48.0848 46.1059 49.0158C45.1749 49.9452 44.0563 50.4099 42.75 50.4099H14.25ZM23.75 33.7849V42.0974C23.75 42.4141 23.8687 42.6912 24.1062 42.9287C24.3437 43.1662 24.6208 43.2849 24.9375 43.2849C25.2542 43.2849 25.5312 43.1662 25.7688 42.9287C26.0063 42.6912 26.125 42.4141 26.125 42.0974V33.7849C27.1146 33.7849 27.9553 33.4382 28.6473 32.7447C29.3407 32.0527 29.6875 31.212 29.6875 30.2224V24.2849C29.6875 23.9682 29.5688 23.6912 29.3313 23.4537C29.0938 23.2162 28.8167 23.0974 28.5 23.0974C28.1833 23.0974 27.9062 23.2162 27.6687 23.4537C27.4312 23.6912 27.3125 23.9682 27.3125 24.2849V30.2224H26.125V24.2849C26.125 23.9682 26.0063 23.6912 25.7688 23.4537C25.5312 23.2162 25.2542 23.0974 24.9375 23.0974C24.6208 23.0974 24.3437 23.2162 24.1062 23.4537C23.8687 23.6912 23.75 23.9682 23.75 24.2849V30.2224H22.5625V24.2849C22.5625 23.9682 22.4438 23.6912 22.2063 23.4537C21.9688 23.2162 21.6917 23.0974 21.375 23.0974C21.0583 23.0974 20.7812 23.2162 20.5437 23.4537C20.3062 23.6912 20.1875 23.9682 20.1875 24.2849V30.2224C20.1875 31.212 20.5342 32.0527 21.2277 32.7447C21.9197 33.4382 22.7604 33.7849 23.75 33.7849ZM34.4375 43.2849C34.7542 43.2849 35.0312 43.1662 35.2688 42.9287C35.5063 42.6912 35.625 42.4141 35.625 42.0974V24.5224C35.625 24.2057 35.5063 23.9287 35.2688 23.6912C35.0312 23.4537 34.7542 23.3349 34.4375 23.3349C33.3292 23.3349 32.4583 23.7901 31.825 24.7005C31.1917 25.611 30.875 26.6599 30.875 27.8474V33.7849C30.875 34.1016 30.9937 34.3787 31.2312 34.6162C31.4688 34.8537 31.7458 34.9724 32.0625 34.9724H33.25V42.0974C33.25 42.4141 33.3687 42.6912 33.6062 42.9287C33.8438 43.1662 34.1208 43.2849 34.4375 43.2849Z" fill="#C6D9E8"/>
</g>
</svg>
